<svg width="40" height="41" viewBox="0 0 40 41" fill="none" xmlns="http://www.w3.org/2000/svg">
<mask id="path-1-inside-1_184_1192" fill="white">
<path d="M38.2952 14.6718L34.8475 11.2242C34.5693 10.9498 34.1985 10.7895 33.808 10.7751C33.4175 10.7606 33.0358 10.893 32.7381 11.1461C32.2785 11.5373 31.6887 11.7415 31.0856 11.7184C30.4825 11.6952 29.9101 11.4463 29.4819 11.0211C29.0568 10.5928 28.8081 10.0206 28.7849 9.41769C28.7618 8.81477 28.9659 8.22514 29.3569 7.76559C29.61 7.4679 29.7423 7.08618 29.7279 6.69572C29.7134 6.30525 29.5532 5.93437 29.2787 5.65622L25.828 2.20465C25.5363 1.91359 25.1412 1.75012 24.7291 1.75012C24.3171 1.75012 23.9219 1.91359 23.6303 2.20465L18.1342 7.69997C17.7949 8.04051 17.539 8.45497 17.3866 8.9109C17.3569 8.99856 17.3074 9.0782 17.242 9.14364C17.1765 9.20908 17.0969 9.25856 17.0092 9.28825C16.5531 9.44067 16.1386 9.69687 15.7983 10.0367L1.70453 24.1304C1.41347 24.4221 1.25 24.8172 1.25 25.2293C1.25 25.6413 1.41347 26.0365 1.70453 26.3281L5.1561 29.7757C5.43425 30.0501 5.80513 30.2104 6.1956 30.2248C6.58606 30.2393 6.96777 30.1069 7.26547 29.8539C7.72397 29.4595 8.31457 29.253 8.91892 29.2757C9.52327 29.2984 10.0967 29.5486 10.5244 29.9762C10.952 30.4039 11.2022 30.9773 11.2249 31.5817C11.2476 32.186 11.0411 32.7766 10.6467 33.2351C10.3936 33.5328 10.2613 33.9145 10.2757 34.305C10.2902 34.6955 10.4504 35.0663 10.7248 35.3445L14.1725 38.7921C14.4641 39.0832 14.8593 39.2467 15.2713 39.2467C15.6833 39.2467 16.0785 39.0832 16.3702 38.7921L30.4639 24.6984C30.8035 24.3582 31.0597 23.944 31.2123 23.4882C31.2419 23.4003 31.2914 23.3204 31.357 23.2548C31.4226 23.1892 31.5025 23.1397 31.5905 23.1101C32.0462 22.9577 32.4604 22.7018 32.8006 22.3625L38.2959 16.8664C38.5859 16.5748 38.7487 16.1802 38.7485 15.7689C38.7484 15.3577 38.5854 14.9632 38.2952 14.6718ZM20.4537 12.3554C20.3377 12.4715 20.1999 12.5636 20.0482 12.6265C19.8965 12.6893 19.7339 12.7216 19.5698 12.7216C19.4056 12.7216 19.243 12.6893 19.0913 12.6265C18.9397 12.5636 18.8019 12.4715 18.6858 12.3554L17.7866 11.4562C17.5578 11.2206 17.431 10.9045 17.4335 10.5761C17.436 10.2478 17.5675 9.93359 17.7998 9.70146C18.032 9.46933 18.3463 9.3379 18.6746 9.33557C19.003 9.33325 19.319 9.46021 19.5545 9.68903L20.4537 10.5875C20.5699 10.7035 20.662 10.8414 20.7248 10.993C20.7876 11.1447 20.82 11.3073 20.82 11.4714C20.82 11.6356 20.7876 11.7982 20.7248 11.9499C20.662 12.1015 20.5699 12.2394 20.4537 12.3554ZM23.8912 15.7929C23.6569 16.0272 23.339 16.1588 23.0077 16.1588C22.6763 16.1588 22.3585 16.0272 22.1241 15.7929L21.2647 14.9336C21.1486 14.8175 21.0565 14.6797 20.9937 14.528C20.9309 14.3763 20.8985 14.2137 20.8985 14.0496C20.8985 13.8854 20.9309 13.7228 20.9937 13.5712C21.0565 13.4195 21.1486 13.2817 21.2647 13.1656C21.4991 12.9311 21.8171 12.7994 22.1487 12.7994C22.3128 12.7994 22.4754 12.8318 22.6271 12.8946C22.7788 12.9574 22.9166 13.0495 23.0327 13.1656L23.892 14.025C24.0085 14.141 24.101 14.2789 24.1641 14.4308C24.2272 14.5827 24.2597 14.7455 24.2598 14.91C24.2599 15.0744 24.2275 15.2373 24.1645 15.3892C24.1016 15.5411 24.0092 15.6791 23.8928 15.7953L23.8912 15.7929ZM27.3287 19.2304C27.2127 19.3465 27.0749 19.4386 26.9232 19.5015C26.7715 19.5643 26.6089 19.5966 26.4448 19.5966C26.2806 19.5966 26.118 19.5643 25.9663 19.5015C25.8147 19.4386 25.6769 19.3465 25.5608 19.2304L24.7014 18.3711C24.4727 18.1355 24.3459 17.8193 24.3483 17.491C24.3508 17.1626 24.4824 16.8484 24.7146 16.6163C24.9468 16.3842 25.2611 16.2527 25.5894 16.2504C25.9178 16.2481 26.2339 16.3751 26.4694 16.6039L27.3287 17.4632C27.4456 17.5791 27.5384 17.7169 27.6018 17.8687C27.6653 18.0206 27.6981 18.1834 27.6985 18.348C27.6988 18.5125 27.6667 18.6755 27.6039 18.8276C27.5412 18.9797 27.449 19.1179 27.3327 19.2343L27.3287 19.2304ZM30.7998 22.7101C30.6838 22.8262 30.546 22.9183 30.3943 22.9812C30.2426 23.044 30.08 23.0763 29.9159 23.0763C29.7517 23.0763 29.5891 23.044 29.4374 22.9812C29.2858 22.9183 29.1479 22.8262 29.0319 22.7101L28.1381 21.8117C28.0196 21.6959 27.9252 21.5578 27.8606 21.4053C27.7959 21.2528 27.7622 21.0889 27.7614 20.9232C27.7606 20.7576 27.7927 20.5934 27.8559 20.4403C27.9192 20.2871 28.0122 20.1481 28.1296 20.0312C28.247 19.9144 28.3865 19.822 28.54 19.7596C28.6934 19.6971 28.8577 19.6657 29.0234 19.6673C29.1891 19.6689 29.3528 19.7034 29.505 19.7689C29.6572 19.8343 29.7948 19.9293 29.91 20.0484L30.8045 20.9461C30.9206 21.0622 31.0126 21.2 31.0754 21.3517C31.1382 21.5034 31.1704 21.666 31.1704 21.8302C31.1703 21.9944 31.1379 22.1569 31.075 22.3086C31.0121 22.4602 30.9199 22.598 30.8037 22.714L30.7998 22.7101Z"/>
</mask>
<path d="M38.2952 14.6718L34.8475 11.2242C34.5693 10.9498 34.1985 10.7895 33.808 10.7751C33.4175 10.7606 33.0358 10.893 32.7381 11.1461C32.2785 11.5373 31.6887 11.7415 31.0856 11.7184C30.4825 11.6952 29.9101 11.4463 29.4819 11.0211C29.0568 10.5928 28.8081 10.0206 28.7849 9.41769C28.7618 8.81477 28.9659 8.22514 29.3569 7.76559C29.61 7.4679 29.7423 7.08618 29.7279 6.69572C29.7134 6.30525 29.5532 5.93437 29.2787 5.65622L25.828 2.20465C25.5363 1.91359 25.1412 1.75012 24.7291 1.75012C24.3171 1.75012 23.9219 1.91359 23.6303 2.20465L18.1342 7.69997C17.7949 8.04051 17.539 8.45497 17.3866 8.9109C17.3569 8.99856 17.3074 9.0782 17.242 9.14364C17.1765 9.20908 17.0969 9.25856 17.0092 9.28825C16.5531 9.44067 16.1386 9.69687 15.7983 10.0367L1.70453 24.1304C1.41347 24.4221 1.25 24.8172 1.25 25.2293C1.25 25.6413 1.41347 26.0365 1.70453 26.3281L5.1561 29.7757C5.43425 30.0501 5.80513 30.2104 6.1956 30.2248C6.58606 30.2393 6.96777 30.1069 7.26547 29.8539C7.72397 29.4595 8.31457 29.253 8.91892 29.2757C9.52327 29.2984 10.0967 29.5486 10.5244 29.9762C10.952 30.4039 11.2022 30.9773 11.2249 31.5817C11.2476 32.186 11.0411 32.7766 10.6467 33.2351C10.3936 33.5328 10.2613 33.9145 10.2757 34.305C10.2902 34.6955 10.4504 35.0663 10.7248 35.3445L14.1725 38.7921C14.4641 39.0832 14.8593 39.2467 15.2713 39.2467C15.6833 39.2467 16.0785 39.0832 16.3702 38.7921L30.4639 24.6984C30.8035 24.3582 31.0597 23.944 31.2123 23.4882C31.2419 23.4003 31.2914 23.3204 31.357 23.2548C31.4226 23.1892 31.5025 23.1397 31.5905 23.1101C32.0462 22.9577 32.4604 22.7018 32.8006 22.3625L38.2959 16.8664C38.5859 16.5748 38.7487 16.1802 38.7485 15.7689C38.7484 15.3577 38.5854 14.9632 38.2952 14.6718ZM20.4537 12.3554C20.3377 12.4715 20.1999 12.5636 20.0482 12.6265C19.8965 12.6893 19.7339 12.7216 19.5698 12.7216C19.4056 12.7216 19.243 12.6893 19.0913 12.6265C18.9397 12.5636 18.8019 12.4715 18.6858 12.3554L17.7866 11.4562C17.5578 11.2206 17.431 10.9045 17.4335 10.5761C17.436 10.2478 17.5675 9.93359 17.7998 9.70146C18.032 9.46933 18.3463 9.3379 18.6746 9.33557C19.003 9.33325 19.319 9.46021 19.5545 9.68903L20.4537 10.5875C20.5699 10.7035 20.662 10.8414 20.7248 10.993C20.7876 11.1447 20.82 11.3073 20.82 11.4714C20.82 11.6356 20.7876 11.7982 20.7248 11.9499C20.662 12.1015 20.5699 12.2394 20.4537 12.3554ZM23.8912 15.7929C23.6569 16.0272 23.339 16.1588 23.0077 16.1588C22.6763 16.1588 22.3585 16.0272 22.1241 15.7929L21.2647 14.9336C21.1486 14.8175 21.0565 14.6797 20.9937 14.528C20.9309 14.3763 20.8985 14.2137 20.8985 14.0496C20.8985 13.8854 20.9309 13.7228 20.9937 13.5712C21.0565 13.4195 21.1486 13.2817 21.2647 13.1656C21.4991 12.9311 21.8171 12.7994 22.1487 12.7994C22.3128 12.7994 22.4754 12.8318 22.6271 12.8946C22.7788 12.9574 22.9166 13.0495 23.0327 13.1656L23.892 14.025C24.0085 14.141 24.101 14.2789 24.1641 14.4308C24.2272 14.5827 24.2597 14.7455 24.2598 14.91C24.2599 15.0744 24.2275 15.2373 24.1645 15.3892C24.1016 15.5411 24.0092 15.6791 23.8928 15.7953L23.8912 15.7929ZM27.3287 19.2304C27.2127 19.3465 27.0749 19.4386 26.9232 19.5015C26.7715 19.5643 26.6089 19.5966 26.4448 19.5966C26.2806 19.5966 26.118 19.5643 25.9663 19.5015C25.8147 19.4386 25.6769 19.3465 25.5608 19.2304L24.7014 18.3711C24.4727 18.1355 24.3459 17.8193 24.3483 17.491C24.3508 17.1626 24.4824 16.8484 24.7146 16.6163C24.9468 16.3842 25.2611 16.2527 25.5894 16.2504C25.9178 16.2481 26.2339 16.3751 26.4694 16.6039L27.3287 17.4632C27.4456 17.5791 27.5384 17.7169 27.6018 17.8687C27.6653 18.0206 27.6981 18.1834 27.6985 18.348C27.6988 18.5125 27.6667 18.6755 27.6039 18.8276C27.5412 18.9797 27.449 19.1179 27.3327 19.2343L27.3287 19.2304ZM30.7998 22.7101C30.6838 22.8262 30.546 22.9183 30.3943 22.9812C30.2426 23.044 30.08 23.0763 29.9159 23.0763C29.7517 23.0763 29.5891 23.044 29.4374 22.9812C29.2858 22.9183 29.1479 22.8262 29.0319 22.7101L28.1381 21.8117C28.0196 21.6959 27.9252 21.5578 27.8606 21.4053C27.7959 21.2528 27.7622 21.0889 27.7614 20.9232C27.7606 20.7576 27.7927 20.5934 27.8559 20.4403C27.9192 20.2871 28.0122 20.1481 28.1296 20.0312C28.247 19.9144 28.3865 19.822 28.54 19.7596C28.6934 19.6971 28.8577 19.6657 29.0234 19.6673C29.1891 19.6689 29.3528 19.7034 29.505 19.7689C29.6572 19.8343 29.7948 19.9293 29.91 20.0484L30.8045 20.9461C30.9206 21.0622 31.0126 21.2 31.0754 21.3517C31.1382 21.5034 31.1704 21.666 31.1704 21.8302C31.1703 21.9944 31.1379 22.1569 31.075 22.3086C31.0121 22.4602 30.9199 22.598 30.8037 22.714L30.7998 22.7101Z" stroke="white" stroke-width="5" mask="url(#path-1-inside-1_184_1192)"/>
</svg>
