<svg width="36" height="36" viewBox="0 0 36 36" fill="none" xmlns="http://www.w3.org/2000/svg">
<path d="M34.8256 12.1477L31.5845 8.90662C31.323 8.64865 30.9744 8.49802 30.6073 8.48442C30.2402 8.47083 29.8814 8.59526 29.6015 8.83318C29.1695 9.20094 28.615 9.39296 28.048 9.3712C27.4811 9.34943 26.943 9.11547 26.5404 8.71566C26.1408 8.3131 25.907 7.77515 25.8852 7.20836C25.8634 6.64156 26.0553 6.08726 26.4229 5.65524C26.6608 5.37538 26.7852 5.01654 26.7716 4.64947C26.758 4.2824 26.6074 3.93374 26.3494 3.67225L23.1054 0.427483C22.8312 0.153859 22.4597 0.000183105 22.0724 0.000183105C21.6851 0.000183105 21.3136 0.153859 21.0394 0.427483L15.8726 5.59355C15.5536 5.91369 15.3131 6.30332 15.1698 6.73194C15.1418 6.81434 15.0953 6.88921 15.0338 6.95073C14.9723 7.01225 14.8974 7.05877 14.815 7.08667C14.3862 7.22997 13.9965 7.47082 13.6766 7.79027L0.4273 21.0396C0.153676 21.3138 0 21.6853 0 22.0726C0 22.4599 0.153676 22.8314 0.4273 23.1056L3.67206 26.3467C3.93356 26.6047 4.28221 26.7553 4.64928 26.7689C5.01636 26.7825 5.3752 26.6581 5.65506 26.4201C6.08609 26.0494 6.6413 25.8552 7.20944 25.8766C7.77758 25.8979 8.31667 26.1331 8.71869 26.5352C9.1207 26.9372 9.35595 27.4763 9.37728 28.0444C9.39861 28.6126 9.20446 29.1678 8.83372 29.5988C8.5958 29.8787 8.47138 30.2375 8.48497 30.6046C8.49857 30.9716 8.6492 31.3203 8.90717 31.5818L12.1483 34.8229C12.4224 35.0965 12.7939 35.2502 13.1813 35.2502C13.5686 35.2502 13.9401 35.0965 14.2142 34.8229L27.4636 21.5735C27.7828 21.2538 28.0237 20.8644 28.1672 20.4359C28.195 20.3532 28.2415 20.2781 28.3032 20.2164C28.3648 20.1548 28.44 20.1082 28.5226 20.0804C28.951 19.9371 29.3404 19.6965 29.6603 19.3776L34.8264 14.2108C35.099 13.9366 35.252 13.5657 35.2518 13.1791C35.2517 12.7925 35.0984 12.4216 34.8256 12.1477ZM18.0532 9.97009C17.944 10.0792 17.8145 10.1658 17.6719 10.2249C17.5293 10.284 17.3765 10.3144 17.2222 10.3144C17.0678 10.3144 16.915 10.284 16.7724 10.2249C16.6298 10.1658 16.5003 10.0792 16.3911 9.97009L15.5458 9.12475C15.3308 8.90326 15.2116 8.60607 15.2139 8.29739C15.2162 7.98872 15.3399 7.69335 15.5582 7.47513C15.7765 7.25691 16.0719 7.13335 16.3806 7.13116C16.6893 7.12897 16.9864 7.24833 17.2078 7.46344L18.0532 8.30805C18.1623 8.41717 18.2489 8.54673 18.308 8.68931C18.367 8.8319 18.3974 8.98473 18.3974 9.13907C18.3974 9.29341 18.367 9.44624 18.308 9.58883C18.2489 9.73141 18.1623 9.86097 18.0532 9.97009ZM21.2847 13.2016C21.0644 13.4218 20.7656 13.5455 20.4541 13.5455C20.1425 13.5455 19.8438 13.4218 19.6234 13.2016L18.8155 12.3938C18.7064 12.2846 18.6198 12.1551 18.5608 12.0125C18.5017 11.8699 18.4713 11.7171 18.4713 11.5627C18.4713 11.4084 18.5017 11.2556 18.5608 11.113C18.6198 10.9704 18.7064 10.8408 18.8155 10.7317C19.0359 10.5113 19.3349 10.3875 19.6465 10.3875C19.8009 10.3875 19.9537 10.4179 20.0963 10.4769C20.2389 10.536 20.3684 10.6226 20.4776 10.7317L21.2855 11.5396C21.395 11.6487 21.4819 11.7784 21.5412 11.9211C21.6006 12.0639 21.6311 12.217 21.6312 12.3716C21.6313 12.5262 21.6008 12.6793 21.5416 12.8221C21.4824 12.9649 21.3956 13.0946 21.2862 13.2038L21.2847 13.2016ZM24.5163 16.4332C24.4071 16.5423 24.2776 16.6289 24.135 16.688C23.9924 16.7471 23.8396 16.7775 23.6852 16.7775C23.5309 16.7775 23.3781 16.7471 23.2355 16.688C23.0929 16.6289 22.9633 16.5423 22.8542 16.4332L22.0463 15.6253C21.8313 15.4038 21.7121 15.1066 21.7144 14.7979C21.7167 14.4893 21.8404 14.1939 22.0588 13.9757C22.2771 13.7575 22.5725 13.6339 22.8812 13.6317C23.1898 13.6295 23.487 13.7489 23.7084 13.964L24.5163 14.7719C24.6261 14.8808 24.7133 15.0104 24.773 15.1531C24.8326 15.2958 24.8635 15.4489 24.8638 15.6036C24.8642 15.7583 24.834 15.9115 24.775 16.0545C24.7159 16.1975 24.6293 16.3274 24.5199 16.4369L24.5163 16.4332ZM27.7794 19.7044C27.6703 19.8135 27.5407 19.9001 27.3981 19.9592C27.2555 20.0183 27.1027 20.0487 26.9484 20.0487C26.794 20.0487 26.6412 20.0183 26.4986 19.9592C26.356 19.9001 26.2265 19.8135 26.1173 19.7044L25.2771 18.8598C25.1657 18.751 25.077 18.6211 25.0162 18.4777C24.9554 18.3344 24.9237 18.1803 24.923 18.0246C24.9222 17.8688 24.9524 17.7145 25.0119 17.5705C25.0713 17.4266 25.1588 17.2959 25.2691 17.186C25.3795 17.0762 25.5107 16.9893 25.6549 16.9306C25.7992 16.8719 25.9536 16.8424 26.1094 16.8439C26.2651 16.8454 26.419 16.8779 26.5621 16.9394C26.7052 17.0009 26.8346 17.0902 26.9429 17.2021L27.7838 18.046C27.8929 18.1552 27.9794 18.2848 28.0384 18.4274C28.0974 18.57 28.1278 18.7229 28.1277 18.8772C28.1276 19.0315 28.0972 19.1843 28.038 19.3269C27.9789 19.4695 27.8923 19.599 27.7831 19.7081L27.7794 19.7044Z" fill="#2B293D"/>
</svg>
