<svg width="225" height="31" viewBox="0 0 225 31" fill="none" xmlns="http://www.w3.org/2000/svg">
<path d="M0.304 2.64H19.936V8.592H8.944V14.016H18.016V19.248H8.944V30H0.304V2.64ZM35.8131 24.24C36.6131 24.24 38.1011 24.16 40.2771 24C40.5651 24 41.0931 23.968 41.8611 23.904L42.5811 28.848C40.1171 30 36.9171 30.576 32.9811 30.576C29.3011 30.576 26.4691 29.648 24.4851 27.792C22.5331 25.936 21.5571 23.136 21.5571 19.392C21.5571 17.472 21.7971 15.616 22.2771 13.824C22.7891 12.032 23.3651 10.784 24.0051 10.08C24.6771 9.376 25.9251 8.768 27.7491 8.256C29.5731 7.744 31.3811 7.488 33.1731 7.488C36.0531 7.488 38.2131 8 39.6531 9.024C41.0931 10.048 42.0371 11.472 42.4851 13.296C42.9331 15.088 43.1571 17.504 43.1571 20.544C40.9811 20.672 38.8531 20.736 36.7731 20.736H29.9571C29.9571 21.76 30.1651 22.528 30.5811 23.04C31.0291 23.552 31.6531 23.888 32.4531 24.048C33.2531 24.176 34.3731 24.24 35.8131 24.24ZM30.4371 13.2C30.2451 13.296 30.1011 13.712 30.0051 14.448C29.9091 15.184 29.8451 16.016 29.8131 16.944H32.3091C33.8131 16.944 34.9011 16.928 35.5731 16.896C35.5731 15.36 35.3491 14.272 34.9011 13.632C34.4851 12.992 33.7491 12.672 32.6931 12.672C31.8291 12.672 31.0771 12.848 30.4371 13.2ZM63.9021 22.512C63.9021 25.36 62.9901 27.408 61.1661 28.656C59.3741 29.904 56.8141 30.528 53.4861 30.528C51.1501 30.528 48.4621 30.192 45.4221 29.52C45.4861 28.88 45.6301 27.968 45.8541 26.784C46.1101 25.568 46.3181 24.64 46.4781 24C47.6301 24.192 48.9101 24.352 50.3181 24.48C51.7261 24.576 52.9261 24.624 53.9181 24.624C54.7821 24.624 55.3101 24.576 55.5021 24.48C55.5341 24.448 55.5661 24.368 55.5981 24.24C55.6621 24.08 55.6941 23.92 55.6941 23.76C55.6941 23.12 55.2941 22.688 54.4941 22.464C54.2381 22.4 53.2621 22.128 51.5661 21.648C49.8701 21.168 48.4781 20.304 47.3901 19.056C46.3341 17.776 45.8061 16.192 45.8061 14.304C45.8061 13.312 46.0301 12.208 46.4781 10.992C46.9261 9.776 47.4061 9.008 47.9181 8.688C48.3021 8.432 49.2301 8.176 50.7021 7.92C52.1741 7.632 53.5341 7.488 54.7821 7.488C57.4381 7.488 60.1101 7.68 62.7981 8.064C62.7981 8.64 62.7181 9.616 62.5581 10.992C62.3981 12.336 62.2541 13.184 62.1261 13.536C59.4061 13.184 57.2141 13.008 55.5501 13.008C54.6861 13.008 54.1261 13.056 53.8701 13.152C53.8061 13.184 53.7421 13.28 53.6781 13.44C53.6141 13.568 53.5821 13.744 53.5821 13.968C53.5821 14.416 53.7261 14.736 54.0141 14.928C54.3021 15.152 55.0541 15.424 56.2701 15.744C57.7101 16.16 58.9421 16.592 59.9661 17.04C61.0221 17.488 61.9341 18.16 62.7021 19.056C63.5021 19.952 63.9021 21.104 63.9021 22.512ZM76.8003 20.928C76.8003 21.504 76.8163 22.112 76.8483 22.752C76.8803 23.36 76.9763 23.744 77.1363 23.904C77.3603 24.128 78.1443 24.24 79.4883 24.24L81.1203 24.192C81.4083 25.728 81.5523 27.504 81.5523 29.52C80.9443 29.744 80.0483 29.952 78.8643 30.144C77.7123 30.336 76.6083 30.432 75.5523 30.432C73.3443 30.432 71.6323 29.952 70.4163 28.992C69.2323 28 68.6403 26.48 68.6403 24.432V12.624H65.0403V8.256L68.6403 7.92L70.8003 2.64L76.8003 2.304V7.92H81.8883V12.624H76.8003V20.928ZM106.231 29.088C105.047 29.6 103.671 29.968 102.103 30.192C100.535 30.416 99.079 30.528 97.735 30.528C93.383 30.528 89.975 29.392 87.511 27.12C85.047 24.848 83.815 21.36 83.815 16.656C83.815 11.856 85.111 8.272 87.703 5.904C90.295 3.504 93.943 2.304 98.647 2.304C100.887 2.304 103.223 2.608 105.655 3.216C105.655 3.856 105.591 4.816 105.463 6.096C105.335 7.344 105.207 8.224 105.079 8.736H102.055C99.847 8.736 98.103 8.784 96.823 8.88C95.575 8.944 94.823 9.088 94.567 9.312C94.087 9.76 93.719 10.672 93.463 12.048C93.207 13.392 93.079 14.688 93.079 15.936C93.079 18.112 93.351 19.792 93.895 20.976C94.439 22.128 95.127 22.896 95.959 23.28C96.759 23.664 98.087 23.856 99.943 23.856C101.415 23.856 103.335 23.728 105.703 23.472L106.231 29.088ZM122.344 24.24C123.144 24.24 124.632 24.16 126.808 24C127.096 24 127.624 23.968 128.392 23.904L129.112 28.848C126.648 30 123.448 30.576 119.512 30.576C115.832 30.576 113 29.648 111.016 27.792C109.064 25.936 108.088 23.136 108.088 19.392C108.088 17.472 108.328 15.616 108.808 13.824C109.32 12.032 109.896 10.784 110.536 10.08C111.208 9.376 112.456 8.768 114.28 8.256C116.104 7.744 117.912 7.488 119.704 7.488C122.584 7.488 124.744 8 126.184 9.024C127.624 10.048 128.568 11.472 129.016 13.296C129.464 15.088 129.688 17.504 129.688 20.544C127.512 20.672 125.384 20.736 123.304 20.736H116.488C116.488 21.76 116.696 22.528 117.112 23.04C117.56 23.552 118.184 23.888 118.984 24.048C119.784 24.176 120.904 24.24 122.344 24.24ZM116.968 13.2C116.776 13.296 116.632 13.712 116.536 14.448C116.44 15.184 116.376 16.016 116.344 16.944H118.84C120.344 16.944 121.432 16.928 122.104 16.896C122.104 15.36 121.88 14.272 121.432 13.632C121.016 12.992 120.28 12.672 119.224 12.672C118.36 12.672 117.608 12.848 116.968 13.2ZM153.937 9.312C154.225 9.664 154.433 10.544 154.561 11.952C154.721 13.36 154.801 15.504 154.801 18.384V30H146.593V18.48V16.512C146.593 15.488 146.513 14.848 146.353 14.592C146.097 14.272 145.505 14.112 144.577 14.112C144.129 14.112 143.793 14.128 143.569 14.16C142.673 14.192 141.745 14.4 140.785 14.784V30H132.577V7.92H139.249L140.161 11.616C142.465 8.832 145.217 7.44 148.417 7.44C149.569 7.44 150.641 7.6 151.633 7.92C152.657 8.24 153.425 8.704 153.937 9.312ZM168.769 20.928C168.769 21.504 168.785 22.112 168.817 22.752C168.849 23.36 168.945 23.744 169.105 23.904C169.329 24.128 170.113 24.24 171.457 24.24L173.089 24.192C173.377 25.728 173.521 27.504 173.521 29.52C172.913 29.744 172.017 29.952 170.833 30.144C169.681 30.336 168.577 30.432 167.521 30.432C165.313 30.432 163.601 29.952 162.385 28.992C161.201 28 160.609 26.48 160.609 24.432V12.624H157.009V8.256L160.609 7.92L162.769 2.64L168.769 2.304V7.92H173.857V12.624H168.769V20.928ZM189.992 7.44C190.408 7.44 190.84 7.488 191.288 7.584C191.768 7.68 192.12 7.792 192.344 7.92C192.344 8.624 192.264 9.792 192.104 11.424C191.944 13.024 191.8 14.16 191.672 14.832C191.352 14.8 190.76 14.784 189.896 14.784C187.88 14.784 186.088 14.896 184.52 15.12V30H176.312V7.92H183.176L184.136 11.472H184.184C185.112 10.256 186.104 9.28 187.16 8.544C188.216 7.808 189.16 7.44 189.992 7.44ZM206.198 30L205.43 26.976C203.958 29.376 201.91 30.576 199.286 30.576C197.142 30.576 195.382 29.984 194.006 28.8C192.662 27.584 191.99 25.888 191.99 23.712C191.99 22.368 192.374 21.2 193.142 20.208C193.942 19.184 195.03 18.464 196.406 18.048C198.198 17.536 200.966 17.248 204.71 17.184C204.71 15.072 204.614 13.952 204.422 13.824C204.262 13.696 203.75 13.632 202.886 13.632C202.342 13.632 201.59 13.664 200.63 13.728C199.094 13.792 197.014 13.968 194.39 14.256C194.134 12.528 193.942 10.672 193.814 8.688C195.51 8.336 197.286 8.048 199.142 7.824C200.998 7.568 202.662 7.44 204.134 7.44C206.694 7.44 208.614 7.872 209.894 8.736C211.174 9.568 212.006 10.672 212.39 12.048C212.774 13.424 212.95 15.168 212.918 17.28L212.87 24.336L213.014 30H206.198ZM202.07 25.2C202.902 25.2 203.782 25.04 204.71 24.72V21.168H204.326C201.958 21.168 200.646 21.296 200.39 21.552C200.23 21.712 200.102 21.952 200.006 22.272C199.942 22.592 199.91 22.896 199.91 23.184C199.91 23.952 200.086 24.48 200.438 24.768C200.79 25.056 201.334 25.2 202.07 25.2ZM216.768 1.2L224.976 0.863997V30H216.768V1.2Z" fill="#FFE047"/>
</svg>
