<svg width="22" height="29" viewBox="0 0 22 29" fill="none" xmlns="http://www.w3.org/2000/svg">
<mask id="path-1-outside-1_180_1402" maskUnits="userSpaceOnUse" x="0" y="0" width="22" height="29" fill="black">
<rect fill="white" width="22" height="29"/>
<path fill-rule="evenodd" clip-rule="evenodd" d="M12.667 23.0568C16.3721 18.5829 19.1333 15.2487 19.1333 11.25C19.1333 6.69365 15.5218 3 11.0667 3C6.61157 3 3 6.69365 3 11.25C3 15.2487 5.76127 18.5829 9.46634 23.0568C9.98307 23.6807 10.5182 24.3268 11.0667 25C11.6152 24.3268 12.1503 23.6807 12.667 23.0568ZM11.0653 15.8292C13.5403 15.8292 15.5468 13.7772 15.5468 11.2459C15.5468 8.7146 13.5403 6.66257 11.0653 6.66257C8.59023 6.66257 6.5838 8.7146 6.5838 11.2459C6.5838 13.7772 8.59023 15.8292 11.0653 15.8292Z"/>
</mask>
<path d="M12.667 23.0568L14.5924 24.6513H14.5924L12.667 23.0568ZM9.46634 23.0568L7.5409 24.6513L9.46634 23.0568ZM11.0667 25L9.12858 26.5792L11.0667 28.9577L13.0048 26.5792L11.0667 25ZM16.6333 11.25C16.6333 12.6332 16.1671 14.0132 15.1548 15.6742C14.1149 17.3804 12.6289 19.1832 10.7415 21.4622L14.5924 24.6513C16.4102 22.4564 18.1573 20.3552 19.4243 18.2762C20.719 16.152 21.6333 13.8654 21.6333 11.25H16.6333ZM11.0667 5.5C14.0884 5.5 16.6333 8.0211 16.6333 11.25H21.6333C21.6333 5.3662 16.9551 0.5 11.0667 0.5V5.5ZM5.5 11.25C5.5 8.0211 8.04495 5.5 11.0667 5.5V0.5C5.17819 0.5 0.5 5.3662 0.5 11.25H5.5ZM11.3918 21.4622C9.50445 19.1832 8.01845 17.3804 6.97856 15.6742C5.96627 14.0132 5.5 12.6332 5.5 11.25H0.5C0.5 13.8654 1.41437 16.152 2.70899 18.2762C3.976 20.3552 5.72317 22.4564 7.5409 24.6513L11.3918 21.4622ZM13.0048 23.4208C12.449 22.7387 11.9077 22.0851 11.3918 21.4622L7.5409 24.6513C8.05847 25.2763 8.58733 25.9149 9.12858 26.5792L13.0048 23.4208ZM10.7415 21.4622C10.2257 22.0851 9.68435 22.7387 9.12858 23.4208L13.0048 26.5792C13.546 25.9149 14.0749 25.2763 14.5924 24.6513L10.7415 21.4622ZM13.0468 11.2459C13.0468 12.4498 12.107 13.3292 11.0653 13.3292V18.3292C14.9737 18.3292 18.0468 15.1047 18.0468 11.2459H13.0468ZM11.0653 9.16257C12.107 9.16257 13.0468 10.0421 13.0468 11.2459H18.0468C18.0468 7.38715 14.9737 4.16257 11.0653 4.16257V9.16257ZM9.0838 11.2459C9.0838 10.0421 10.0236 9.16257 11.0653 9.16257V4.16257C7.15685 4.16257 4.0838 7.38715 4.0838 11.2459H9.0838ZM11.0653 13.3292C10.0236 13.3292 9.0838 12.4498 9.0838 11.2459H4.0838C4.0838 15.1047 7.15685 18.3292 11.0653 18.3292V13.3292Z" fill="#2D2C3C" mask="url(#path-1-outside-1_180_1402)"/>
</svg>
