<svg width="34" height="38" viewBox="0 0 34 38" fill="none" xmlns="http://www.w3.org/2000/svg">
<path d="M29.8333 33.834V13.6673H4.16667V33.834H29.8333ZM24.3333 0.833984H28V4.50065H29.8333C30.8058 4.50065 31.7384 4.88696 32.4261 5.57459C33.1137 6.26223 33.5 7.19486 33.5 8.16732V33.834C33.5 35.869 31.8683 37.5006 29.8333 37.5006H4.16667C3.19421 37.5006 2.26158 37.1143 1.57394 36.4267C0.886308 35.7391 0.5 34.8064 0.5 33.834V8.16732C0.5 6.13232 2.13167 4.50065 4.16667 4.50065H6V0.833984H9.66667V4.50065H24.3333V0.833984ZM15.1667 16.4173H18.8333V21.9173H24.3333V25.584H18.8333V31.084H15.1667V25.584H9.66667V21.9173H15.1667V16.4173Z" fill="#2B293D"/>
</svg>
