<svg width="36" height="36" viewBox="0 0 36 36" fill="none" xmlns="http://www.w3.org/2000/svg">
<circle cx="18" cy="18" r="16.5" stroke="white" stroke-width="3"/>
<circle cx="18" cy="12" r="4.7" stroke="white" stroke-width="2.6"/>
<mask id="path-3-inside-1_184_1200" fill="white">
<path fill-rule="evenodd" clip-rule="evenodd" d="M5.20898 30.6647C6.30913 24.5995 11.6173 20 17.9998 20C24.3823 20 29.6905 24.5995 30.7906 30.6647C27.5284 33.9592 23.0024 36 17.9998 36C12.9972 36 8.47119 33.9592 5.20898 30.6647Z"/>
</mask>
<path d="M5.20898 30.6647L2.25715 30.1293L1.97844 31.6659L3.07725 32.7756L5.20898 30.6647ZM30.7906 30.6647L32.9224 32.7756L34.0212 31.6659L33.7425 30.1293L30.7906 30.6647ZM8.16082 31.2001C9.00673 26.5365 13.0934 23 17.9998 23V17C10.1413 17 3.61152 22.6625 2.25715 30.1293L8.16082 31.2001ZM17.9998 23C22.9062 23 26.9929 26.5365 27.8388 31.2001L33.7425 30.1293C32.3881 22.6625 25.8583 17 17.9998 17V23ZM28.6589 28.5539C25.937 31.3027 22.1694 33 17.9998 33V39C23.8355 39 29.1198 36.6157 32.9224 32.7756L28.6589 28.5539ZM17.9998 33C13.8302 33 10.0626 31.3027 7.34072 28.5539L3.07725 32.7756C6.87977 36.6157 12.1641 39 17.9998 39V33Z" fill="white" mask="url(#path-3-inside-1_184_1200)"/>
</svg>
