<svg width="36" height="35" viewBox="0 0 36 35" fill="none" xmlns="http://www.w3.org/2000/svg">
<path d="M14.7461 12.2214L18 2.20689L21.2539 12.2214L22.4903 11.8197L21.2539 12.2214C21.5618 13.169 22.4449 13.8106 23.4413 13.8106H33.9712L25.4524 19.9999C24.6462 20.5856 24.3089 21.6238 24.6168 22.5714L27.8707 32.5859L19.3519 26.3966C18.5458 25.8109 17.4542 25.8109 16.6481 26.3966L8.12926 32.5859L11.3832 22.5714C11.6911 21.6238 11.3538 20.5856 10.5476 19.9999L2.0288 13.8106H12.5587C13.5551 13.8106 14.4382 13.169 14.7461 12.2214L13.5097 11.8197L14.7461 12.2214Z" stroke="white" stroke-width="2.6"/>
</svg>
